<svg width="1200" height="750" viewBox="0 0 1200 750" fill="none" xmlns="http://www.w3.org/2000/svg">
  <rect width="1200" height="750" rx="32" fill="#041826" />
  <rect x="40" y="40" width="1120" height="120" rx="20" fill="#0F172A" stroke="#0EA5E9" stroke-width="3" />
  <text x="80" y="88" fill="#F8FAFC" font-family="Inter, sans-serif" font-size="28" font-weight="700">DATAZEN Analytics Dashboard</text>
  <text x="80" y="130" fill="#94A3B8" font-family="Inter, sans-serif" font-size="16">Student performance monitoring and interactive learning analytics.</text>

  <rect x="60" y="180" width="520" height="240" rx="24" fill="#0F172A" stroke="#334155" stroke-width="2" />
  <text x="80" y="222" fill="#E2E8F0" font-family="Inter, sans-serif" font-size="20" font-weight="600">Weekly attendance</text>
  <rect x="80" y="260" width="440" height="24" rx="12" fill="#1E293B" />
  <rect x="80" y="300" width="260" height="24" rx="12" fill="#38BDF8" />
  <rect x="80" y="340" width="220" height="24" rx="12" fill="#2563EB" />
  <rect x="80" y="380" width="290" height="24" rx="12" fill="#0EA5E9" />
  <text x="92" y="280" fill="#F8FAFC" font-family="Inter, sans-serif" font-size="14">Mon</text>
  <text x="92" y="320" fill="#F8FAFC" font-family="Inter, sans-serif" font-size="14">Tue</text>
  <text x="92" y="360" fill="#F8FAFC" font-family="Inter, sans-serif" font-size="14">Wed</text>
  <text x="92" y="400" fill="#F8FAFC" font-family="Inter, sans-serif" font-size="14">Thu</text>

  <rect x="610" y="180" width="520" height="240" rx="24" fill="#0F172A" stroke="#334155" stroke-width="2" />
  <text x="630" y="222" fill="#E2E8F0" font-family="Inter, sans-serif" font-size="20" font-weight="600">Performance distribution</text>
  <rect x="630" y="260" width="460" height="32" rx="16" fill="#1E293B" />
  <rect x="630" y="310" width="380" height="32" rx="16" fill="#22C55E" />
  <rect x="630" y="360" width="320" height="32" rx="16" fill="#38BDF8" />
  <rect x="630" y="410" width="290" height="32" rx="16" fill="#2563EB" />
  <text x="640" y="285" fill="#F8FAFC" font-family="Inter, sans-serif" font-size="14">Exceeded target</text>
  <text x="640" y="335" fill="#F8FAFC" font-family="Inter, sans-serif" font-size="14">On track</text>
  <text x="640" y="385" fill="#F8FAFC" font-family="Inter, sans-serif" font-size="14">Needs support</text>
  <text x="640" y="435" fill="#F8FAFC" font-family="Inter, sans-serif" font-size="14">At risk</text>

  <rect x="60" y="450" width="1070" height="230" rx="24" fill="#0F172A" stroke="#334155" stroke-width="2" />
  <text x="80" y="500" fill="#E2E8F0" font-family="Inter, sans-serif" font-size="20" font-weight="600">Attendance vs. score</text>
  <rect x="110" y="530" width="120" height="160" rx="16" fill="#38BDF8" />
  <rect x="260" y="530" width="140" height="120" rx="16" fill="#0EA5E9" />
  <rect x="430" y="530" width="110" height="180" rx="16" fill="#2563EB" />
  <rect x="580" y="530" width="130" height="140" rx="16" fill="#22C55E" />
  <rect x="760" y="530" width="110" height="155" rx="16" fill="#7DD3FC" />
  <rect x="900" y="530" width="140" height="130" rx="16" fill="#93C5FD" />
  <text x="110" y="720" fill="#94A3B8" font-family="Inter, sans-serif" font-size="14">Week 1</text>
  <text x="260" y="720" fill="#94A3B8" font-family="Inter, sans-serif" font-size="14">Week 2</text>
  <text x="430" y="720" fill="#94A3B8" font-family="Inter, sans-serif" font-size="14">Week 3</text>
  <text x="580" y="720" fill="#94A3B8" font-family="Inter, sans-serif" font-size="14">Week 4</text>
  <text x="760" y="720" fill="#94A3B8" font-family="Inter, sans-serif" font-size="14">Week 5</text>
  <text x="900" y="720" fill="#94A3B8" font-family="Inter, sans-serif" font-size="14">Week 6</text>

  <text x="80" y="730" fill="#94A3B8" font-family="Inter, sans-serif" font-size="14">Screenshot mockup: analytics dashboard layout showing student performance charts and KPI summary.</text>
</svg>
